# xmcd
#
# Track frame offsets:
#	150
#	19206
#	30755
#	40829
#	58085
#	67520
#	82127
#	91435
#	99242
#	120722
#	139782
#	152612
#	161859
#	174623
#	186711
#	199623
#
# Disc length: 2843 seconds
#
# Revision: 1
# Processed by: cddbd v1.5.2PL0 Copyright (c) Steve Scherf et al.
# Submitted via: EasyCDDAExtractor 6.0.0.1
#
DISCID=d10b1910
DTITLE=Various Artist - The Best Of Country and Western [CD 3)
DYEAR=1996
DGENRE=Country
TTITLE0=John Denver - Hold On To Me
TTITLE1=Don  Williams - Take My Hand For A While
TTITLE2=Willie Nelson - A Moment Isn't Very Long
TTITLE3=Convoy - Ferlin Husky
TTITLE4=John  Denver - Eagles And Horses
TTITLE5=Jim Reeves - Blue Boy
TTITLE6=Johnny Cash - Peace In The Valley
TTITLE7=Brenda Lee - Saved
TTITLE8=George Jones - Family Bible
TTITLE9=Stonwell Jackson - I Love You Because
TTITLE10=Lynn Anderson - Top Of The World Heart
TTITLE11=Wanda Jackson - Raining In My Heart
TTITLE12=Hank Locklin - Flying South
TTITLE13=Loretta Lynn - Your Squaw Is On The Warpath
TTITLE14=Charly Pride - Shutters And Boards
TTITLE15=Gene Autry -  Good Lord Bless And Keep You
EXTD=
EXTT0=
EXTT1=
EXTT2=
EXTT3=
EXTT4=
EXTT5=
EXTT6=
EXTT7=
EXTT8=
EXTT9=
EXTT10=
EXTT11=
EXTT12=
EXTT13=
EXTT14=
EXTT15=
PLAYORDER=
